<svg width="214" height="36" viewBox="0 0 214 36" fill="none" xmlns="http://www.w3.org/2000/svg">
<path d="M0.37037 0.444443H2.74074V2.81482H0.37037V0.444443ZM2.74074 0.444443H5.11111V2.81482H2.74074V0.444443ZM2.74074 2.81482H5.11111V5.18518H2.74074V2.81482ZM5.11111 2.81482H7.48148V5.18518H5.11111V2.81482ZM5.11111 5.18518H7.48148V7.55556H5.11111V5.18518ZM5.11111 0.444443H7.48148V2.81482H5.11111V0.444443ZM0.37037 2.81482H2.74074V5.18518H0.37037V2.81482ZM0.37037 5.18518H2.74074V7.55556H0.37037V5.18518ZM0.37037 7.55556H2.74074V9.92593H0.37037V7.55556ZM0.37037 9.92593H2.74074V12.2963H0.37037V9.92593ZM2.74074 9.92593H5.11111V12.2963H2.74074V9.92593ZM2.74074 7.55556H5.11111V9.92593H2.74074V7.55556ZM5.11111 7.55556H7.48148V9.92593H5.11111V7.55556ZM2.74074 5.18518H5.11111V7.55556H2.74074V5.18518ZM5.11111 9.92593H7.48148V12.2963H5.11111V9.92593ZM5.11111 12.2963H7.48148V14.6667H5.11111V12.2963ZM2.74074 12.2963H5.11111V14.6667H2.74074V12.2963ZM2.74074 14.6667H5.11111V17.037H2.74074V14.6667ZM0.37037 12.2963H2.74074V14.6667H0.37037V12.2963ZM0.37037 14.6667H2.74074V17.037H0.37037V14.6667ZM0.37037 17.037H2.74074V19.4074H0.37037V17.037ZM0.37037 19.4074H2.74074V21.7778H0.37037V19.4074ZM0.37037 21.7778H2.74074V24.1481H0.37037V21.7778ZM0.37037 24.1481H2.74074V26.5185H0.37037V24.1481ZM0.37037 26.5185H2.74074V28.8889H0.37037V26.5185ZM0.37037 33.6296H2.74074V36H0.37037V33.6296ZM0.37037 31.2593H2.74074V33.6296H0.37037V31.2593ZM0.37037 28.8889H2.74074V31.2593H0.37037V28.8889ZM2.74074 28.8889H5.11111V31.2593H2.74074V28.8889ZM5.11111 28.8889H7.48148V31.2593H5.11111V28.8889ZM5.11111 31.2593H7.48148V33.6296H5.11111V31.2593ZM5.11111 33.6296H7.48148V36H5.11111V33.6296ZM2.74074 33.6296H5.11111V36H2.74074V33.6296ZM2.74074 31.2593H5.11111V33.6296H2.74074V31.2593ZM14.5926 26.5185H16.963V28.8889H14.5926V26.5185ZM14.5926 28.8889H16.963V31.2593H14.5926V28.8889ZM14.5926 31.2593H16.963V33.6296H14.5926V31.2593ZM14.5926 33.6296H16.963V36H14.5926V33.6296ZM16.963 33.6296H19.3333V36H16.963V33.6296ZM19.3333 33.6296H21.7037V36H19.3333V33.6296ZM19.3333 31.2593H21.7037V33.6296H19.3333V31.2593ZM19.3333 28.8889H21.7037V31.2593H19.3333V28.8889ZM16.963 28.8889H19.3333V31.2593H16.963V28.8889ZM16.963 31.2593H19.3333V33.6296H16.963V31.2593ZM16.963 26.5185H19.3333V28.8889H16.963V26.5185ZM19.3333 26.5185H21.7037V28.8889H19.3333V26.5185ZM19.3333 24.1481H21.7037V26.5185H19.3333V24.1481ZM19.3333 21.7778H21.7037V24.1481H19.3333V21.7778ZM16.963 21.7778H19.3333V24.1481H16.963V21.7778ZM16.963 24.1481H19.3333V26.5185H16.963V24.1481ZM14.5926 24.1481H16.963V26.5185H14.5926V24.1481ZM14.5926 21.7778H16.963V24.1481H14.5926V21.7778ZM12.2222 21.7778H14.5926V24.1481H12.2222V21.7778ZM14.5926 19.4074H16.963V21.7778H14.5926V19.4074ZM16.963 19.4074H19.3333V21.7778H16.963V19.4074ZM12.2222 19.4074H14.5926V21.7778H12.2222V19.4074ZM9.85185 19.4074H12.2222V21.7778H9.85185V19.4074ZM7.48148 19.4074H9.85185V21.7778H7.48148V19.4074ZM5.11111 26.5185H7.48148V28.8889H5.11111V26.5185ZM5.11111 24.1481H7.48148V26.5185H5.11111V24.1481ZM5.11111 21.7778H7.48148V24.1481H5.11111V21.7778ZM5.11111 19.4074H7.48148V21.7778H5.11111V19.4074ZM2.74074 19.4074H5.11111V21.7778H2.74074V19.4074ZM2.74074 21.7778H5.11111V24.1481H2.74074V21.7778ZM2.74074 24.1481H5.11111V26.5185H2.74074V24.1481ZM2.74074 26.5185H5.11111V28.8889H2.74074V26.5185ZM2.74074 17.037H5.11111V19.4074H2.74074V17.037ZM5.11111 17.037H7.48148V19.4074H5.11111V17.037ZM7.48148 17.037H9.85185V19.4074H7.48148V17.037ZM9.85185 17.037H12.2222V19.4074H9.85185V17.037ZM12.2222 17.037H14.5926V19.4074H12.2222V17.037ZM14.5926 17.037H16.963V19.4074H14.5926V17.037ZM12.2222 14.6667H14.5926V17.037H12.2222V14.6667ZM9.85185 14.6667H12.2222V17.037H9.85185V14.6667ZM7.48148 14.6667H9.85185V17.037H7.48148V14.6667ZM5.11111 14.6667H7.48148V17.037H5.11111V14.6667ZM14.5926 14.6667H16.963V17.037H14.5926V14.6667ZM16.963 14.6667H19.3333V17.037H16.963V14.6667ZM14.5926 12.2963H16.963V14.6667H14.5926V12.2963ZM12.2222 12.2963H14.5926V14.6667H12.2222V12.2963ZM16.963 12.2963H19.3333V14.6667H16.963V12.2963ZM19.3333 12.2963H21.7037V14.6667H19.3333V12.2963ZM19.3333 9.92593H21.7037V12.2963H19.3333V9.92593ZM19.3333 7.55556H21.7037V9.92593H19.3333V7.55556ZM19.3333 5.18518H21.7037V7.55556H19.3333V5.18518ZM14.5926 0.444443H16.963V2.81482H14.5926V0.444443ZM16.963 0.444443H19.3333V2.81482H16.963V0.444443ZM19.3333 0.444443H21.7037V2.81482H19.3333V0.444443ZM19.3333 2.81482H21.7037V5.18518H19.3333V2.81482ZM16.963 2.81482H19.3333V5.18518H16.963V2.81482ZM14.5926 2.81482H16.963V5.18518H14.5926V2.81482ZM14.5926 5.18518H16.963V7.55556H14.5926V5.18518ZM14.5926 7.55556H16.963V9.92593H14.5926V7.55556ZM14.5926 9.92593H16.963V12.2963H14.5926V9.92593ZM16.963 9.92593H19.3333V12.2963H16.963V9.92593ZM16.963 7.55556H19.3333V9.92593H16.963V7.55556ZM16.963 5.18518H19.3333V7.55556H16.963V5.18518ZM31.1736 9.92593H33.544V12.2963H31.1736V9.92593ZM33.544 9.92593H35.9144V12.2963H33.544V9.92593ZM35.9144 9.92593H38.2847V12.2963H35.9144V9.92593ZM38.2847 9.92593H40.6551V12.2963H38.2847V9.92593ZM40.6551 9.92593H43.0255V12.2963H40.6551V9.92593ZM43.0255 9.92593H45.3958V12.2963H43.0255V9.92593ZM45.3958 12.2963H47.7662V14.6667H45.3958V12.2963ZM43.0255 12.2963H45.3958V14.6667H43.0255V12.2963ZM40.6551 12.2963H43.0255V14.6667H40.6551V12.2963ZM38.2847 12.2963H40.6551V14.6667H38.2847V12.2963ZM35.9144 12.2963H38.2847V14.6667H35.9144V12.2963ZM33.544 12.2963H35.9144V14.6667H33.544V12.2963ZM31.1736 12.2963H33.544V14.6667H31.1736V12.2963ZM28.8032 12.2963H31.1736V14.6667H28.8032V12.2963ZM28.8032 14.6667H31.1736V17.037H28.8032V14.6667ZM31.1736 14.6667H33.544V17.037H31.1736V14.6667ZM26.4329 14.6667H28.8032V17.037H26.4329V14.6667ZM26.4329 17.037H28.8032V19.4074H26.4329V17.037ZM26.4329 19.4074H28.8032V21.7778H26.4329V19.4074ZM28.8032 19.4074H31.1736V21.7778H28.8032V19.4074ZM31.1736 19.4074H33.544V21.7778H31.1736V19.4074ZM31.1736 17.037H33.544V19.4074H31.1736V17.037ZM28.8032 17.037H31.1736V19.4074H28.8032V17.037ZM28.8032 21.7778H31.1736V24.1481H28.8032V21.7778ZM28.8032 24.1481H31.1736V26.5185H28.8032V24.1481ZM28.8032 26.5185H31.1736V28.8889H28.8032V26.5185ZM26.4329 26.5185H28.8032V28.8889H26.4329V26.5185ZM26.4329 28.8889H28.8032V31.2593H26.4329V28.8889ZM26.4329 24.1481H28.8032V26.5185H26.4329V24.1481ZM26.4329 21.7778H28.8032V24.1481H26.4329V21.7778ZM31.1736 21.7778H33.544V24.1481H31.1736V21.7778ZM31.1736 24.1481H33.544V26.5185H31.1736V24.1481ZM31.1736 26.5185H33.544V28.8889H31.1736V26.5185ZM31.1736 28.8889H33.544V31.2593H31.1736V28.8889ZM28.8032 28.8889H31.1736V31.2593H28.8032V28.8889ZM28.8032 31.2593H31.1736V33.6296H28.8032V31.2593ZM31.1736 31.2593H33.544V33.6296H31.1736V31.2593ZM33.544 31.2593H35.9144V33.6296H33.544V31.2593ZM33.544 28.8889H35.9144V31.2593H33.544V28.8889ZM31.1736 33.6296H33.544V36H31.1736V33.6296ZM33.544 33.6296H35.9144V36H33.544V33.6296ZM35.9144 33.6296H38.2847V36H35.9144V33.6296ZM38.2847 33.6296H40.6551V36H38.2847V33.6296ZM40.6551 33.6296H43.0255V36H40.6551V33.6296ZM43.0255 33.6296H45.3958V36H43.0255V33.6296ZM40.6551 31.2593H43.0255V33.6296H40.6551V31.2593ZM38.2847 31.2593H40.6551V33.6296H38.2847V31.2593ZM35.9144 31.2593H38.2847V33.6296H35.9144V31.2593ZM43.0255 31.2593H45.3958V33.6296H43.0255V31.2593ZM45.3958 31.2593H47.7662V33.6296H45.3958V31.2593ZM43.0255 28.8889H45.3958V31.2593H43.0255V28.8889ZM40.6551 28.8889H43.0255V31.2593H40.6551V28.8889ZM45.3958 28.8889H47.7662V31.2593H45.3958V28.8889ZM47.7662 28.8889H50.1366V31.2593H47.7662V28.8889ZM47.7662 26.5185H50.1366V28.8889H47.7662V26.5185ZM45.3958 24.1481H47.7662V26.5185H45.3958V24.1481ZM45.3958 26.5185H47.7662V28.8889H45.3958V26.5185ZM43.0255 26.5185H45.3958V28.8889H43.0255V26.5185ZM47.7662 24.1481H50.1366V26.5185H47.7662V24.1481ZM47.7662 21.7778H50.1366V24.1481H47.7662V21.7778ZM45.3958 21.7778H47.7662V24.1481H45.3958V21.7778ZM45.3958 19.4074H47.7662V21.7778H45.3958V19.4074ZM45.3958 17.037H47.7662V19.4074H45.3958V17.037ZM47.7662 17.037H50.1366V19.4074H47.7662V17.037ZM47.7662 14.6667H50.1366V17.037H47.7662V14.6667ZM47.7662 19.4074H50.1366V21.7778H47.7662V19.4074ZM43.0255 21.7778H45.3958V24.1481H43.0255V21.7778ZM43.0255 24.1481H45.3958V26.5185H43.0255V24.1481ZM43.0255 19.4074H45.3958V21.7778H43.0255V19.4074ZM43.0255 17.037H45.3958V19.4074H43.0255V17.037ZM43.0255 14.6667H45.3958V17.037H43.0255V14.6667ZM40.6551 14.6667H43.0255V17.037H40.6551V14.6667ZM45.3958 14.6667H47.7662V17.037H45.3958V14.6667ZM33.544 14.6667H35.9144V17.037H33.544V14.6667ZM35.9144 14.6667H38.2847V17.037H35.9144V14.6667ZM38.2847 14.6667H40.6551V17.037H38.2847V14.6667ZM35.9144 28.8889H38.2847V31.2593H35.9144V28.8889ZM38.2847 28.8889H40.6551V31.2593H38.2847V28.8889ZM59.6111 9.92593H61.9815V12.2963H59.6111V9.92593ZM61.9815 9.92593H64.3519V12.2963H61.9815V9.92593ZM64.3519 9.92593H66.7222V12.2963H64.3519V9.92593ZM66.7222 9.92593H69.0926V12.2963H66.7222V9.92593ZM69.0926 9.92593H71.463V12.2963H69.0926V9.92593ZM71.463 9.92593H73.8333V12.2963H71.463V9.92593ZM73.8333 12.2963H76.2037V14.6667H73.8333V12.2963ZM71.463 12.2963H73.8333V14.6667H71.463V12.2963ZM69.0926 12.2963H71.463V14.6667H69.0926V12.2963ZM66.7222 12.2963H69.0926V14.6667H66.7222V12.2963ZM64.3519 12.2963H66.7222V14.6667H64.3519V12.2963ZM61.9815 12.2963H64.3519V14.6667H61.9815V12.2963ZM59.6111 12.2963H61.9815V14.6667H59.6111V12.2963ZM57.2407 12.2963H59.6111V14.6667H57.2407V12.2963ZM57.2407 14.6667H59.6111V17.037H57.2407V14.6667ZM59.6111 14.6667H61.9815V17.037H59.6111V14.6667ZM54.8704 14.6667H57.2407V17.037H54.8704V14.6667ZM54.8704 17.037H57.2407V19.4074H54.8704V17.037ZM54.8704 19.4074H57.2407V21.7778H54.8704V19.4074ZM57.2407 19.4074H59.6111V21.7778H57.2407V19.4074ZM59.6111 19.4074H61.9815V21.7778H59.6111V19.4074ZM59.6111 17.037H61.9815V19.4074H59.6111V17.037ZM57.2407 17.037H59.6111V19.4074H57.2407V17.037ZM57.2407 21.7778H59.6111V24.1481H57.2407V21.7778ZM57.2407 24.1481H59.6111V26.5185H57.2407V24.1481ZM57.2407 26.5185H59.6111V28.8889H57.2407V26.5185ZM54.8704 26.5185H57.2407V28.8889H54.8704V26.5185ZM54.8704 28.8889H57.2407V31.2593H54.8704V28.8889ZM54.8704 24.1481H57.2407V26.5185H54.8704V24.1481ZM54.8704 21.7778H57.2407V24.1481H54.8704V21.7778ZM59.6111 21.7778H61.9815V24.1481H59.6111V21.7778ZM59.6111 24.1481H61.9815V26.5185H59.6111V24.1481ZM59.6111 26.5185H61.9815V28.8889H59.6111V26.5185ZM59.6111 28.8889H61.9815V31.2593H59.6111V28.8889ZM57.2407 28.8889H59.6111V31.2593H57.2407V28.8889ZM57.2407 31.2593H59.6111V33.6296H57.2407V31.2593ZM59.6111 31.2593H61.9815V33.6296H59.6111V31.2593ZM61.9815 31.2593H64.3519V33.6296H61.9815V31.2593ZM61.9815 28.8889H64.3519V31.2593H61.9815V28.8889ZM59.6111 33.6296H61.9815V36H59.6111V33.6296ZM61.9815 33.6296H64.3519V36H61.9815V33.6296ZM64.3519 33.6296H66.7222V36H64.3519V33.6296ZM66.7222 33.6296H69.0926V36H66.7222V33.6296ZM69.0926 33.6296H71.463V36H69.0926V33.6296ZM71.463 33.6296H73.8333V36H71.463V33.6296ZM69.0926 31.2593H71.463V33.6296H69.0926V31.2593ZM66.7222 31.2593H69.0926V33.6296H66.7222V31.2593ZM64.3519 31.2593H66.7222V33.6296H64.3519V31.2593ZM71.463 31.2593H73.8333V33.6296H71.463V31.2593ZM73.8333 31.2593H76.2037V33.6296H73.8333V31.2593ZM71.463 28.8889H73.8333V31.2593H71.463V28.8889ZM69.0926 28.8889H71.463V31.2593H69.0926V28.8889ZM73.8333 28.8889H76.2037V31.2593H73.8333V28.8889ZM76.2037 28.8889H78.5741V31.2593H76.2037V28.8889ZM76.2037 26.5185H78.5741V28.8889H76.2037V26.5185ZM73.8333 24.1481H76.2037V26.5185H73.8333V24.1481ZM73.8333 26.5185H76.2037V28.8889H73.8333V26.5185ZM71.463 26.5185H73.8333V28.8889H71.463V26.5185ZM76.2037 24.1481H78.5741V26.5185H76.2037V24.1481ZM76.2037 21.7778H78.5741V24.1481H76.2037V21.7778ZM73.8333 21.7778H76.2037V24.1481H73.8333V21.7778ZM73.8333 19.4074H76.2037V21.7778H73.8333V19.4074ZM73.8333 17.037H76.2037V19.4074H73.8333V17.037ZM76.2037 17.037H78.5741V19.4074H76.2037V17.037ZM76.2037 14.6667H78.5741V17.037H76.2037V14.6667ZM76.2037 19.4074H78.5741V21.7778H76.2037V19.4074ZM71.463 21.7778H73.8333V24.1481H71.463V21.7778ZM71.463 24.1481H73.8333V26.5185H71.463V24.1481ZM71.463 19.4074H73.8333V21.7778H71.463V19.4074ZM71.463 17.037H73.8333V19.4074H71.463V17.037ZM71.463 14.6667H73.8333V17.037H71.463V14.6667ZM69.0926 14.6667H71.463V17.037H69.0926V14.6667ZM73.8333 14.6667H76.2037V17.037H73.8333V14.6667ZM61.9815 14.6667H64.3519V17.037H61.9815V14.6667ZM64.3519 14.6667H66.7222V17.037H64.3519V14.6667ZM66.7222 14.6667H69.0926V17.037H66.7222V14.6667ZM64.3519 28.8889H66.7222V31.2593H64.3519V28.8889ZM66.7222 28.8889H69.0926V31.2593H66.7222V28.8889ZM85.6782 0.444443H88.0486V2.81482H85.6782V0.444443ZM85.6782 2.81482H88.0486V5.18518H85.6782V2.81482ZM85.6782 5.18518H88.0486V7.55556H85.6782V5.18518ZM85.6782 7.55556H88.0486V9.92593H85.6782V7.55556ZM85.6782 9.92593H88.0486V12.2963H85.6782V9.92593ZM85.6782 12.2963H88.0486V14.6667H85.6782V12.2963ZM85.6782 14.6667H88.0486V17.037H85.6782V14.6667ZM85.6782 17.037H88.0486V19.4074H85.6782V17.037ZM85.6782 19.4074H88.0486V21.7778H85.6782V19.4074ZM85.6782 21.7778H88.0486V24.1481H85.6782V21.7778ZM85.6782 24.1481H88.0486V26.5185H85.6782V24.1481ZM85.6782 26.5185H88.0486V28.8889H85.6782V26.5185ZM85.6782 28.8889H88.0486V31.2593H85.6782V28.8889ZM85.6782 31.2593H88.0486V33.6296H85.6782V31.2593ZM85.6782 33.6296H88.0486V36H85.6782V33.6296ZM83.3079 33.6296H85.6782V36H83.3079V33.6296ZM83.3079 31.2593H85.6782V33.6296H83.3079V31.2593ZM83.3079 28.8889H85.6782V31.2593H83.3079V28.8889ZM83.3079 2.81482H85.6782V5.18518H83.3079V2.81482ZM83.3079 0.444443H85.6782V2.81482H83.3079V0.444443ZM83.3079 5.18518H85.6782V7.55556H83.3079V5.18518ZM83.3079 7.55556H85.6782V9.92593H83.3079V7.55556ZM83.3079 9.92593H85.6782V12.2963H83.3079V9.92593ZM83.3079 12.2963H85.6782V14.6667H83.3079V12.2963ZM83.3079 14.6667H85.6782V17.037H83.3079V14.6667ZM83.3079 17.037H85.6782V19.4074H83.3079V17.037ZM83.3079 19.4074H85.6782V21.7778H83.3079V19.4074ZM83.3079 21.7778H85.6782V24.1481H83.3079V21.7778ZM83.3079 24.1481H85.6782V26.5185H83.3079V24.1481ZM83.3079 26.5185H85.6782V28.8889H83.3079V26.5185ZM88.0486 33.6296H90.419V36H88.0486V33.6296ZM88.0486 31.2593H90.419V33.6296H88.0486V31.2593ZM88.0486 28.8889H90.419V31.2593H88.0486V28.8889ZM88.0486 26.5185H90.419V28.8889H88.0486V26.5185ZM88.0486 21.7778H90.419V24.1481H88.0486V21.7778ZM88.0486 19.4074H90.419V21.7778H88.0486V19.4074ZM88.0486 17.037H90.419V19.4074H88.0486V17.037ZM88.0486 14.6667H90.419V17.037H88.0486V14.6667ZM88.0486 12.2963H90.419V14.6667H88.0486V12.2963ZM88.0486 9.92593H90.419V12.2963H88.0486V9.92593ZM88.0486 0.444443H90.419V2.81482H88.0486V0.444443ZM88.0486 2.81482H90.419V5.18518H88.0486V2.81482ZM88.0486 5.18518H90.419V7.55556H88.0486V5.18518ZM88.0486 7.55556H90.419V9.92593H88.0486V7.55556ZM88.0486 24.1481H90.419V26.5185H88.0486V24.1481ZM90.419 33.6296H92.7894V36H90.419V33.6296ZM92.7894 33.6296H95.1597V36H92.7894V33.6296ZM95.1597 33.6296H97.5301V36H95.1597V33.6296ZM95.1597 31.2593H97.5301V33.6296H95.1597V31.2593ZM95.1597 28.8889H97.5301V31.2593H95.1597V28.8889ZM92.7894 28.8889H95.1597V31.2593H92.7894V28.8889ZM92.7894 31.2593H95.1597V33.6296H92.7894V31.2593ZM90.419 31.2593H92.7894V33.6296H90.419V31.2593ZM90.419 28.8889H92.7894V31.2593H90.419V28.8889ZM97.5301 28.8889H99.9005V31.2593H97.5301V28.8889ZM97.5301 31.2593H99.9005V33.6296H97.5301V31.2593ZM97.5301 33.6296H99.9005V36H97.5301V33.6296ZM99.9005 33.6296H102.271V36H99.9005V33.6296ZM99.9005 31.2593H102.271V33.6296H99.9005V31.2593ZM99.9005 28.8889H102.271V31.2593H99.9005V28.8889ZM121.245 0.444443H123.616V2.81482H121.245V0.444443ZM123.616 0.444443H125.986V2.81482H123.616V0.444443ZM125.986 0.444443H128.356V2.81482H125.986V0.444443ZM128.356 0.444443H130.727V2.81482H128.356V0.444443ZM130.727 0.444443H133.097V2.81482H130.727V0.444443ZM133.097 0.444443H135.468V2.81482H133.097V0.444443ZM135.468 0.444443H137.838V2.81482H135.468V0.444443ZM137.838 0.444443H140.208V2.81482H137.838V0.444443ZM137.838 2.81482H140.208V5.18518H137.838V2.81482ZM140.208 2.81482H142.579V5.18518H140.208V2.81482ZM135.468 2.81482H137.838V5.18518H135.468V2.81482ZM133.097 2.81482H135.468V5.18518H133.097V2.81482ZM130.727 2.81482H133.097V5.18518H130.727V2.81482ZM128.356 2.81482H130.727V5.18518H128.356V2.81482ZM125.986 2.81482H128.356V5.18518H125.986V2.81482ZM123.616 2.81482H125.986V5.18518H123.616V2.81482ZM121.245 2.81482H123.616V5.18518H121.245V2.81482ZM121.245 5.18518H123.616V7.55556H121.245V5.18518ZM123.616 5.18518H125.986V7.55556H123.616V5.18518ZM125.986 5.18518H128.356V7.55556H125.986V5.18518ZM128.356 5.18518H130.727V7.55556H128.356V5.18518ZM133.097 5.18518H135.468V7.55556H133.097V5.18518ZM135.468 5.18518H137.838V7.55556H135.468V5.18518ZM137.838 5.18518H140.208V7.55556H137.838V5.18518ZM140.208 5.18518H142.579V7.55556H140.208V5.18518ZM142.579 5.18518H144.949V7.55556H142.579V5.18518ZM130.727 5.18518H133.097V7.55556H130.727V5.18518ZM135.468 7.55556H137.838V9.92593H135.468V7.55556ZM137.838 7.55556H140.208V9.92593H137.838V7.55556ZM142.579 7.55556H144.949V9.92593H142.579V7.55556ZM140.208 7.55556H142.579V9.92593H140.208V7.55556ZM140.208 9.92593H142.579V12.2963H140.208V9.92593ZM140.208 12.2963H142.579V14.6667H140.208V12.2963ZM142.579 12.2963H144.949V14.6667H142.579V12.2963ZM142.579 14.6667H144.949V17.037H142.579V14.6667ZM142.579 9.92593H144.949V12.2963H142.579V9.92593ZM137.838 12.2963H140.208V14.6667H137.838V12.2963ZM137.838 9.92593H140.208V12.2963H137.838V9.92593ZM135.468 12.2963H137.838V14.6667H135.468V12.2963ZM137.838 14.6667H140.208V17.037H137.838V14.6667ZM140.208 14.6667H142.579V17.037H140.208V14.6667ZM140.208 17.037H142.579V19.4074H140.208V17.037ZM140.208 19.4074H142.579V21.7778H140.208V19.4074ZM142.579 19.4074H144.949V21.7778H142.579V19.4074ZM142.579 21.7778H144.949V24.1481H142.579V21.7778ZM142.579 24.1481H144.949V26.5185H142.579V24.1481ZM142.579 26.5185H144.949V28.8889H142.579V26.5185ZM142.579 28.8889H144.949V31.2593H142.579V28.8889ZM140.208 28.8889H142.579V31.2593H140.208V28.8889ZM140.208 31.2593H142.579V33.6296H140.208V31.2593ZM137.838 31.2593H140.208V33.6296H137.838V31.2593ZM137.838 28.8889H140.208V31.2593H137.838V28.8889ZM135.468 28.8889H137.838V31.2593H135.468V28.8889ZM135.468 26.5185H137.838V28.8889H135.468V26.5185ZM137.838 26.5185H140.208V28.8889H137.838V26.5185ZM140.208 26.5185H142.579V28.8889H140.208V26.5185ZM140.208 24.1481H142.579V26.5185H140.208V24.1481ZM140.208 21.7778H142.579V24.1481H140.208V21.7778ZM137.838 21.7778H140.208V24.1481H137.838V21.7778ZM137.838 24.1481H140.208V26.5185H137.838V24.1481ZM135.468 21.7778H137.838V24.1481H135.468V21.7778ZM135.468 19.4074H137.838V21.7778H135.468V19.4074ZM137.838 19.4074H140.208V21.7778H137.838V19.4074ZM137.838 17.037H140.208V19.4074H137.838V17.037ZM135.468 17.037H137.838V19.4074H135.468V17.037ZM135.468 14.6667H137.838V17.037H135.468V14.6667ZM133.097 19.4074H135.468V21.7778H133.097V19.4074ZM130.727 19.4074H133.097V21.7778H130.727V19.4074ZM128.356 19.4074H130.727V21.7778H128.356V19.4074ZM128.356 17.037H130.727V19.4074H128.356V17.037ZM130.727 17.037H133.097V19.4074H130.727V17.037ZM130.727 14.6667H133.097V17.037H130.727V14.6667ZM133.097 14.6667H135.468V17.037H133.097V14.6667ZM128.356 14.6667H130.727V17.037H128.356V14.6667ZM133.097 17.037H135.468V19.4074H133.097V17.037ZM123.616 7.55556H125.986V9.92593H123.616V7.55556ZM125.986 7.55556H128.356V9.92593H125.986V7.55556ZM125.986 9.92593H128.356V12.2963H125.986V9.92593ZM125.986 12.2963H128.356V14.6667H125.986V12.2963ZM125.986 14.6667H128.356V17.037H125.986V14.6667ZM123.616 14.6667H125.986V17.037H123.616V14.6667ZM121.245 14.6667H123.616V17.037H121.245V14.6667ZM121.245 12.2963H123.616V14.6667H121.245V12.2963ZM121.245 9.92593H123.616V12.2963H121.245V9.92593ZM121.245 7.55556H123.616V9.92593H121.245V7.55556ZM123.616 12.2963H125.986V14.6667H123.616V12.2963ZM123.616 17.037H125.986V19.4074H123.616V17.037ZM123.616 9.92593H125.986V12.2963H123.616V9.92593ZM121.245 17.037H123.616V19.4074H121.245V17.037ZM121.245 19.4074H123.616V21.7778H121.245V19.4074ZM123.616 19.4074H125.986V21.7778H123.616V19.4074ZM125.986 17.037H128.356V19.4074H125.986V17.037ZM125.986 19.4074H128.356V21.7778H125.986V19.4074ZM125.986 21.7778H128.356V24.1481H125.986V21.7778ZM125.986 24.1481H128.356V26.5185H125.986V24.1481ZM125.986 26.5185H128.356V28.8889H125.986V26.5185ZM125.986 28.8889H128.356V31.2593H125.986V28.8889ZM128.356 28.8889H130.727V31.2593H128.356V28.8889ZM130.727 28.8889H133.097V31.2593H130.727V28.8889ZM133.097 28.8889H135.468V31.2593H133.097V28.8889ZM135.468 31.2593H137.838V33.6296H135.468V31.2593ZM137.838 33.6296H140.208V36H137.838V33.6296ZM135.468 33.6296H137.838V36H135.468V33.6296ZM133.097 33.6296H135.468V36H133.097V33.6296ZM130.727 33.6296H133.097V36H130.727V33.6296ZM128.356 33.6296H130.727V36H128.356V33.6296ZM125.986 33.6296H128.356V36H125.986V33.6296ZM123.616 33.6296H125.986V36H123.616V33.6296ZM121.245 33.6296H123.616V36H121.245V33.6296ZM121.245 31.2593H123.616V33.6296H121.245V31.2593ZM121.245 28.8889H123.616V31.2593H121.245V28.8889ZM121.245 26.5185H123.616V28.8889H121.245V26.5185ZM121.245 24.1481H123.616V26.5185H121.245V24.1481ZM121.245 21.7778H123.616V24.1481H121.245V21.7778ZM123.616 21.7778H125.986V24.1481H123.616V21.7778ZM123.616 24.1481H125.986V26.5185H123.616V24.1481ZM123.616 26.5185H125.986V28.8889H123.616V26.5185ZM123.616 28.8889H125.986V31.2593H123.616V28.8889ZM123.616 31.2593H125.986V33.6296H123.616V31.2593ZM125.986 31.2593H128.356V33.6296H125.986V31.2593ZM128.356 31.2593H130.727V33.6296H128.356V31.2593ZM130.727 31.2593H133.097V33.6296H130.727V31.2593ZM133.097 31.2593H135.468V33.6296H133.097V31.2593ZM149.683 0.444443H152.053V2.81482H149.683V0.444443ZM149.683 2.81482H152.053V5.18518H149.683V2.81482ZM149.683 5.18518H152.053V7.55556H149.683V5.18518ZM149.683 12.2963H152.053V14.6667H149.683V12.2963ZM149.683 14.6667H152.053V17.037H149.683V14.6667ZM149.683 17.037H152.053V19.4074H149.683V17.037ZM149.683 19.4074H152.053V21.7778H149.683V19.4074ZM149.683 21.7778H152.053V24.1481H149.683V21.7778ZM149.683 24.1481H152.053V26.5185H149.683V24.1481ZM149.683 26.5185H152.053V28.8889H149.683V26.5185ZM149.683 28.8889H152.053V31.2593H149.683V28.8889ZM149.683 31.2593H152.053V33.6296H149.683V31.2593ZM149.683 33.6296H152.053V36H149.683V33.6296ZM152.053 33.6296H154.424V36H152.053V33.6296ZM154.424 33.6296H156.794V36H154.424V33.6296ZM154.424 31.2593H156.794V33.6296H154.424V31.2593ZM154.424 28.8889H156.794V31.2593H154.424V28.8889ZM154.424 26.5185H156.794V28.8889H154.424V26.5185ZM154.424 24.1481H156.794V26.5185H154.424V24.1481ZM154.424 21.7778H156.794V24.1481H154.424V21.7778ZM154.424 19.4074H156.794V21.7778H154.424V19.4074ZM154.424 17.037H156.794V19.4074H154.424V17.037ZM154.424 14.6667H156.794V17.037H154.424V14.6667ZM154.424 0.444443H156.794V2.81482H154.424V0.444443ZM152.053 0.444443H154.424V2.81482H152.053V0.444443ZM152.053 2.81482H154.424V5.18518H152.053V2.81482ZM154.424 2.81482H156.794V5.18518H154.424V2.81482ZM154.424 5.18518H156.794V7.55556H154.424V5.18518ZM154.424 12.2963H156.794V14.6667H154.424V12.2963ZM152.053 5.18518H154.424V7.55556H152.053V5.18518ZM152.053 12.2963H154.424V14.6667H152.053V12.2963ZM152.053 14.6667H154.424V17.037H152.053V14.6667ZM152.053 31.2593H154.424V33.6296H152.053V31.2593ZM152.053 28.8889H154.424V31.2593H152.053V28.8889ZM152.053 26.5185H154.424V28.8889H152.053V26.5185ZM152.053 24.1481H154.424V26.5185H152.053V24.1481ZM152.053 21.7778H154.424V24.1481H152.053V21.7778ZM152.053 19.4074H154.424V21.7778H152.053V19.4074ZM152.053 17.037H154.424V19.4074H152.053V17.037ZM166.299 9.92593H168.669V12.2963H166.299V9.92593ZM168.669 9.92593H171.039V12.2963H168.669V9.92593ZM171.039 9.92593H173.41V12.2963H171.039V9.92593ZM173.41 9.92593H175.78V12.2963H173.41V9.92593ZM175.78 9.92593H178.15V12.2963H175.78V9.92593ZM178.15 9.92593H180.521V12.2963H178.15V9.92593ZM180.521 12.2963H182.891V14.6667H180.521V12.2963ZM178.15 12.2963H180.521V14.6667H178.15V12.2963ZM175.78 12.2963H178.15V14.6667H175.78V12.2963ZM173.41 12.2963H175.78V14.6667H173.41V12.2963ZM171.039 12.2963H173.41V14.6667H171.039V12.2963ZM168.669 12.2963H171.039V14.6667H168.669V12.2963ZM166.299 12.2963H168.669V14.6667H166.299V12.2963ZM163.928 12.2963H166.299V14.6667H163.928V12.2963ZM163.928 14.6667H166.299V17.037H163.928V14.6667ZM166.299 14.6667H168.669V17.037H166.299V14.6667ZM161.558 14.6667H163.928V17.037H161.558V14.6667ZM161.558 17.037H163.928V19.4074H161.558V17.037ZM161.558 19.4074H163.928V21.7778H161.558V19.4074ZM163.928 19.4074H166.299V21.7778H163.928V19.4074ZM166.299 19.4074H168.669V21.7778H166.299V19.4074ZM166.299 17.037H168.669V19.4074H166.299V17.037ZM163.928 17.037H166.299V19.4074H163.928V17.037ZM163.928 21.7778H166.299V24.1481H163.928V21.7778ZM163.928 24.1481H166.299V26.5185H163.928V24.1481ZM163.928 26.5185H166.299V28.8889H163.928V26.5185ZM161.558 26.5185H163.928V28.8889H161.558V26.5185ZM161.558 28.8889H163.928V31.2593H161.558V28.8889ZM161.558 24.1481H163.928V26.5185H161.558V24.1481ZM161.558 21.7778H163.928V24.1481H161.558V21.7778ZM166.299 21.7778H168.669V24.1481H166.299V21.7778ZM166.299 24.1481H168.669V26.5185H166.299V24.1481ZM166.299 26.5185H168.669V28.8889H166.299V26.5185ZM166.299 28.8889H168.669V31.2593H166.299V28.8889ZM163.928 28.8889H166.299V31.2593H163.928V28.8889ZM163.928 31.2593H166.299V33.6296H163.928V31.2593ZM166.299 31.2593H168.669V33.6296H166.299V31.2593ZM168.669 31.2593H171.039V33.6296H168.669V31.2593ZM168.669 28.8889H171.039V31.2593H168.669V28.8889ZM166.299 33.6296H168.669V36H166.299V33.6296ZM168.669 33.6296H171.039V36H168.669V33.6296ZM171.039 33.6296H173.41V36H171.039V33.6296ZM173.41 33.6296H175.78V36H173.41V33.6296ZM175.78 33.6296H178.15V36H175.78V33.6296ZM178.15 33.6296H180.521V36H178.15V33.6296ZM175.78 31.2593H178.15V33.6296H175.78V31.2593ZM173.41 31.2593H175.78V33.6296H173.41V31.2593ZM171.039 31.2593H173.41V33.6296H171.039V31.2593ZM178.15 31.2593H180.521V33.6296H178.15V31.2593ZM180.521 31.2593H182.891V33.6296H180.521V31.2593ZM178.15 28.8889H180.521V31.2593H178.15V28.8889ZM175.78 28.8889H178.15V31.2593H175.78V28.8889ZM180.521 28.8889H182.891V31.2593H180.521V28.8889ZM182.891 28.8889H185.262V31.2593H182.891V28.8889ZM180.521 17.037H182.891V19.4074H180.521V17.037ZM182.891 17.037H185.262V19.4074H182.891V17.037ZM182.891 14.6667H185.262V17.037H182.891V14.6667ZM178.15 17.037H180.521V19.4074H178.15V17.037ZM178.15 14.6667H180.521V17.037H178.15V14.6667ZM180.521 14.6667H182.891V17.037H180.521V14.6667ZM171.039 28.8889H173.41V31.2593H171.039V28.8889ZM173.41 28.8889H175.78V31.2593H173.41V28.8889ZM182.891 19.4074H185.262V21.7778H182.891V19.4074ZM180.521 19.4074H182.891V21.7778H180.521V19.4074ZM178.15 19.4074H180.521V21.7778H178.15V19.4074ZM171.039 21.7778H173.41V24.1481H171.039V21.7778ZM173.41 21.7778H175.78V24.1481H173.41V21.7778ZM175.78 21.7778H178.15V24.1481H175.78V21.7778ZM178.15 21.7778H180.521V24.1481H178.15V21.7778ZM180.521 21.7778H182.891V24.1481H180.521V21.7778ZM182.891 21.7778H185.262V24.1481H182.891V21.7778ZM168.669 21.7778H171.039V24.1481H168.669V21.7778ZM168.669 14.6667H171.039V17.037H168.669V14.6667ZM171.039 14.6667H173.41V17.037H171.039V14.6667ZM173.41 14.6667H175.78V17.037H173.41V14.6667ZM175.78 14.6667H178.15V17.037H175.78V14.6667ZM182.891 24.1481H185.262V26.5185H182.891V24.1481ZM180.521 24.1481H182.891V26.5185H180.521V24.1481ZM175.78 24.1481H178.15V26.5185H175.78V24.1481ZM173.41 24.1481H175.78V26.5185H173.41V24.1481ZM171.039 24.1481H173.41V26.5185H171.039V24.1481ZM168.669 24.1481H171.039V26.5185H168.669V24.1481ZM178.15 24.1481H180.521V26.5185H178.15V24.1481ZM194.736 9.92593H197.106V12.2963H194.736V9.92593ZM192.366 12.2963H194.736V14.6667H192.366V12.2963ZM192.366 14.6667H194.736V17.037H192.366V14.6667ZM189.995 12.2963H192.366V14.6667H189.995V12.2963ZM189.995 9.92593H192.366V12.2963H189.995V9.92593ZM192.366 9.92593H194.736V12.2963H192.366V9.92593ZM192.366 17.037H194.736V19.4074H192.366V17.037ZM189.995 17.037H192.366V19.4074H189.995V17.037ZM189.995 19.4074H192.366V21.7778H189.995V19.4074ZM189.995 14.6667H192.366V17.037H189.995V14.6667ZM189.995 21.7778H192.366V24.1481H189.995V21.7778ZM189.995 24.1481H192.366V26.5185H189.995V24.1481ZM189.995 26.5185H192.366V28.8889H189.995V26.5185ZM189.995 28.8889H192.366V31.2593H189.995V28.8889ZM189.995 31.2593H192.366V33.6296H189.995V31.2593ZM192.366 31.2593H194.736V33.6296H192.366V31.2593ZM194.736 31.2593H197.106V33.6296H194.736V31.2593ZM194.736 33.6296H197.106V36H194.736V33.6296ZM192.366 33.6296H194.736V36H192.366V33.6296ZM189.995 33.6296H192.366V36H189.995V33.6296ZM194.736 28.8889H197.106V31.2593H194.736V28.8889ZM194.736 26.5185H197.106V28.8889H194.736V26.5185ZM194.736 24.1481H197.106V26.5185H194.736V24.1481ZM194.736 21.7778H197.106V24.1481H194.736V21.7778ZM194.736 19.4074H197.106V21.7778H194.736V19.4074ZM194.736 17.037H197.106V19.4074H194.736V17.037ZM194.736 14.6667H197.106V17.037H194.736V14.6667ZM194.736 12.2963H197.106V14.6667H194.736V12.2963ZM192.366 19.4074H194.736V21.7778H192.366V19.4074ZM192.366 24.1481H194.736V26.5185H192.366V24.1481ZM192.366 26.5185H194.736V28.8889H192.366V26.5185ZM192.366 28.8889H194.736V31.2593H192.366V28.8889ZM192.366 21.7778H194.736V24.1481H192.366V21.7778ZM206.588 33.6296H208.958V36H206.588V33.6296ZM208.958 33.6296H211.329V36H208.958V33.6296ZM208.958 31.2593H211.329V33.6296H208.958V31.2593ZM208.958 28.8889H211.329V31.2593H208.958V28.8889ZM208.958 26.5185H211.329V28.8889H208.958V26.5185ZM211.329 26.5185H213.699V28.8889H211.329V26.5185ZM211.329 24.1481H213.699V26.5185H211.329V24.1481ZM211.329 28.8889H213.699V31.2593H211.329V28.8889ZM211.329 31.2593H213.699V33.6296H211.329V31.2593ZM211.329 33.6296H213.699V36H211.329V33.6296ZM206.588 31.2593H208.958V33.6296H206.588V31.2593ZM206.588 28.8889H208.958V31.2593H206.588V28.8889ZM206.588 26.5185H208.958V28.8889H206.588V26.5185ZM206.588 24.1481H208.958V26.5185H206.588V24.1481ZM206.588 21.7778H208.958V24.1481H206.588V21.7778ZM206.588 19.4074H208.958V21.7778H206.588V19.4074ZM206.588 17.037H208.958V19.4074H206.588V17.037ZM206.588 14.6667H208.958V17.037H206.588V14.6667ZM206.588 12.2963H208.958V14.6667H206.588V12.2963ZM204.218 12.2963H206.588V14.6667H204.218V12.2963ZM201.847 12.2963H204.218V14.6667H201.847V12.2963ZM208.958 14.6667H211.329V17.037H208.958V14.6667ZM208.958 17.037H211.329V19.4074H208.958V17.037ZM208.958 19.4074H211.329V21.7778H208.958V19.4074ZM208.958 21.7778H211.329V24.1481H208.958V21.7778ZM208.958 24.1481H211.329V26.5185H208.958V24.1481ZM211.329 21.7778H213.699V24.1481H211.329V21.7778ZM211.329 19.4074H213.699V21.7778H211.329V19.4074ZM211.329 17.037H213.699V19.4074H211.329V17.037ZM211.329 14.6667H213.699V17.037H211.329V14.6667ZM208.958 12.2963H211.329V14.6667H208.958V12.2963ZM206.588 9.92593H208.958V12.2963H206.588V9.92593ZM204.218 9.92593H206.588V12.2963H204.218V9.92593ZM201.847 9.92593H204.218V12.2963H201.847V9.92593ZM199.477 9.92593H201.847V12.2963H199.477V9.92593ZM199.477 12.2963H201.847V14.6667H199.477V12.2963ZM197.106 12.2963H199.477V14.6667H197.106V12.2963ZM197.106 14.6667H199.477V17.037H197.106V14.6667ZM199.477 14.6667H201.847V17.037H199.477V14.6667ZM201.847 14.6667H204.218V17.037H201.847V14.6667ZM204.218 14.6667H206.588V17.037H204.218V14.6667ZM197.106 17.037H199.477V19.4074H197.106V17.037Z" fill="#C75000"/>
</svg>
